<svg xmlns="http://www.w3.org/2000/svg" viewBox="0 0 160 160" role="img" aria-label="lion">
  <circle cx="80" cy="80" r="72" fill="#fff1d2"/>
  <path d="M80 18l15 18 23-7 3 24 23 9-15 19 12 22-25 4-8 23-21-12-22 12-8-23-25-4 12-22-15-19 23-9 3-24 23 7Z" fill="#b7672d"/>
  <circle cx="80" cy="82" r="43" fill="#e7a84d"/>
  <circle cx="64" cy="78" r="6" fill="#1d232b"/>
  <circle cx="96" cy="78" r="6" fill="#1d232b"/>
  <path d="M80 91l12 9-12 10-12-10Z" fill="#7c4325"/>
  <path d="M57 111c13 10 33 10 46 0" fill="none" stroke="#7c4325" stroke-width="6" stroke-linecap="round"/>
</svg>
